<mxfile host="app.diagrams.net" modified="2023-06-04T13:02:56.788Z" agent="Mozilla/5.0 (Windows NT 10.0; Win64; x64) AppleWebKit/537.36 (KHTML, like Gecko) Chrome/114.0.0.0 Safari/537.36" etag="vkHxBfCGs8glDhs8vlQA" version="21.3.7" type="github">
  <diagram id="R2lEEEUBdFMjLlhIrx00" name="Page-1">
    <mxGraphModel dx="794" dy="452" grid="1" gridSize="10" guides="1" tooltips="1" connect="1" arrows="1" fold="1" page="1" pageScale="1" pageWidth="850" pageHeight="1100" math="0" shadow="0" extFonts="Permanent Marker^https://fonts.googleapis.com/css?family=Permanent+Marker">
      <root>
        <mxCell id="0" />
        <mxCell id="1" parent="0" />
        <mxCell id="C-vyLk0tnHw3VtMMgP7b-12" value="" style="edgeStyle=entityRelationEdgeStyle;endArrow=ERzeroToMany;startArrow=ERone;endFill=1;startFill=0;" parent="1" target="C-vyLk0tnHw3VtMMgP7b-17" edge="1">
          <mxGeometry width="100" height="100" relative="1" as="geometry">
            <mxPoint x="700" y="165" as="sourcePoint" />
            <mxPoint x="460" y="205" as="targetPoint" />
          </mxGeometry>
        </mxCell>
        <mxCell id="wmQN3CBMVzomJxAV33U_-60" value="book" style="rounded=0;whiteSpace=wrap;html=1;" vertex="1" parent="1">
          <mxGeometry x="120" y="270" width="120" height="60" as="geometry" />
        </mxCell>
        <mxCell id="wmQN3CBMVzomJxAV33U_-61" value="title" style="ellipse;whiteSpace=wrap;html=1;" vertex="1" parent="1">
          <mxGeometry x="20" y="210" width="90" height="50" as="geometry" />
        </mxCell>
        <mxCell id="wmQN3CBMVzomJxAV33U_-62" value="&lt;u&gt;&lt;font style=&quot;font-size: 18px;&quot;&gt;Id&lt;/font&gt;&lt;/u&gt;" style="ellipse;whiteSpace=wrap;html=1;" vertex="1" parent="1">
          <mxGeometry x="290" y="160" width="90" height="50" as="geometry" />
        </mxCell>
        <mxCell id="wmQN3CBMVzomJxAV33U_-63" value="availability" style="ellipse;whiteSpace=wrap;html=1;" vertex="1" parent="1">
          <mxGeometry x="190" y="160" width="86" height="60" as="geometry" />
        </mxCell>
        <mxCell id="wmQN3CBMVzomJxAV33U_-64" value="price" style="ellipse;whiteSpace=wrap;html=1;" vertex="1" parent="1">
          <mxGeometry x="97" y="160" width="80" height="50" as="geometry" />
        </mxCell>
        <mxCell id="wmQN3CBMVzomJxAV33U_-65" value="" style="endArrow=none;html=1;rounded=0;entryX=0;entryY=1;entryDx=0;entryDy=0;exitX=1;exitY=0;exitDx=0;exitDy=0;" edge="1" parent="1" source="wmQN3CBMVzomJxAV33U_-60" target="wmQN3CBMVzomJxAV33U_-62">
          <mxGeometry width="50" height="50" relative="1" as="geometry">
            <mxPoint x="390" y="300" as="sourcePoint" />
            <mxPoint x="440" y="250" as="targetPoint" />
            <Array as="points" />
          </mxGeometry>
        </mxCell>
        <mxCell id="wmQN3CBMVzomJxAV33U_-66" value="" style="endArrow=none;html=1;rounded=0;entryX=0.5;entryY=1;entryDx=0;entryDy=0;exitX=0.75;exitY=0;exitDx=0;exitDy=0;" edge="1" parent="1" source="wmQN3CBMVzomJxAV33U_-60" target="wmQN3CBMVzomJxAV33U_-63">
          <mxGeometry width="50" height="50" relative="1" as="geometry">
            <mxPoint x="240" y="260" as="sourcePoint" />
            <mxPoint x="290" y="210" as="targetPoint" />
          </mxGeometry>
        </mxCell>
        <mxCell id="wmQN3CBMVzomJxAV33U_-67" value="" style="endArrow=none;html=1;rounded=0;entryX=1;entryY=1;entryDx=0;entryDy=0;exitX=0;exitY=0;exitDx=0;exitDy=0;" edge="1" parent="1" source="wmQN3CBMVzomJxAV33U_-60" target="wmQN3CBMVzomJxAV33U_-61">
          <mxGeometry width="50" height="50" relative="1" as="geometry">
            <mxPoint x="160" y="300" as="sourcePoint" />
            <mxPoint x="90" y="270" as="targetPoint" />
          </mxGeometry>
        </mxCell>
        <mxCell id="wmQN3CBMVzomJxAV33U_-68" value="" style="endArrow=none;html=1;rounded=0;entryX=0.5;entryY=1;entryDx=0;entryDy=0;exitX=0.25;exitY=0;exitDx=0;exitDy=0;" edge="1" parent="1" source="wmQN3CBMVzomJxAV33U_-60" target="wmQN3CBMVzomJxAV33U_-64">
          <mxGeometry width="50" height="50" relative="1" as="geometry">
            <mxPoint x="200" y="250" as="sourcePoint" />
            <mxPoint x="440" y="250" as="targetPoint" />
            <Array as="points" />
          </mxGeometry>
        </mxCell>
        <mxCell id="wmQN3CBMVzomJxAV33U_-69" value="reader" style="rounded=0;whiteSpace=wrap;html=1;" vertex="1" parent="1">
          <mxGeometry x="520" y="270" width="120" height="60" as="geometry" />
        </mxCell>
        <mxCell id="wmQN3CBMVzomJxAV33U_-70" value="phone_number" style="ellipse;whiteSpace=wrap;html=1;" vertex="1" parent="1">
          <mxGeometry x="540" y="160" width="100" height="50" as="geometry" />
        </mxCell>
        <mxCell id="wmQN3CBMVzomJxAV33U_-71" value="name" style="ellipse;whiteSpace=wrap;html=1;" vertex="1" parent="1">
          <mxGeometry x="650" y="160" width="100" height="50" as="geometry" />
        </mxCell>
        <mxCell id="wmQN3CBMVzomJxAV33U_-72" value="address" style="ellipse;whiteSpace=wrap;html=1;" vertex="1" parent="1">
          <mxGeometry x="680" y="290" width="100" height="60" as="geometry" />
        </mxCell>
        <mxCell id="wmQN3CBMVzomJxAV33U_-73" value="" style="endArrow=none;html=1;rounded=0;exitX=0.75;exitY=0;exitDx=0;exitDy=0;entryX=0.5;entryY=1;entryDx=0;entryDy=0;" edge="1" parent="1" source="wmQN3CBMVzomJxAV33U_-69" target="wmQN3CBMVzomJxAV33U_-70">
          <mxGeometry width="50" height="50" relative="1" as="geometry">
            <mxPoint x="430" y="390" as="sourcePoint" />
            <mxPoint x="610" y="220" as="targetPoint" />
          </mxGeometry>
        </mxCell>
        <mxCell id="wmQN3CBMVzomJxAV33U_-74" value="" style="endArrow=none;html=1;rounded=0;entryX=0.5;entryY=1;entryDx=0;entryDy=0;exitX=1;exitY=0;exitDx=0;exitDy=0;" edge="1" parent="1" source="wmQN3CBMVzomJxAV33U_-69" target="wmQN3CBMVzomJxAV33U_-71">
          <mxGeometry width="50" height="50" relative="1" as="geometry">
            <mxPoint x="530" y="270" as="sourcePoint" />
            <mxPoint x="540" y="230" as="targetPoint" />
          </mxGeometry>
        </mxCell>
        <mxCell id="wmQN3CBMVzomJxAV33U_-75" value="" style="endArrow=none;html=1;rounded=0;entryX=0;entryY=1;entryDx=0;entryDy=0;exitX=1;exitY=1;exitDx=0;exitDy=0;" edge="1" parent="1" source="wmQN3CBMVzomJxAV33U_-69" target="wmQN3CBMVzomJxAV33U_-72">
          <mxGeometry width="50" height="50" relative="1" as="geometry">
            <mxPoint x="640" y="285" as="sourcePoint" />
            <mxPoint x="720" y="260" as="targetPoint" />
          </mxGeometry>
        </mxCell>
        <mxCell id="wmQN3CBMVzomJxAV33U_-76" value="street" style="ellipse;whiteSpace=wrap;html=1;" vertex="1" parent="1">
          <mxGeometry x="770" y="210" width="120" height="80" as="geometry" />
        </mxCell>
        <mxCell id="wmQN3CBMVzomJxAV33U_-77" value="suburb" style="ellipse;whiteSpace=wrap;html=1;" vertex="1" parent="1">
          <mxGeometry x="800" y="350" width="120" height="80" as="geometry" />
        </mxCell>
        <mxCell id="wmQN3CBMVzomJxAV33U_-78" value="" style="endArrow=none;html=1;rounded=0;entryX=0;entryY=1;entryDx=0;entryDy=0;exitX=1;exitY=0;exitDx=0;exitDy=0;" edge="1" parent="1" source="wmQN3CBMVzomJxAV33U_-72" target="wmQN3CBMVzomJxAV33U_-76">
          <mxGeometry width="50" height="50" relative="1" as="geometry">
            <mxPoint x="760" y="330" as="sourcePoint" />
            <mxPoint x="810" y="280" as="targetPoint" />
          </mxGeometry>
        </mxCell>
        <mxCell id="wmQN3CBMVzomJxAV33U_-79" value="" style="endArrow=none;html=1;rounded=0;exitX=1;exitY=1;exitDx=0;exitDy=0;entryX=0;entryY=0;entryDx=0;entryDy=0;" edge="1" parent="1" source="wmQN3CBMVzomJxAV33U_-72" target="wmQN3CBMVzomJxAV33U_-77">
          <mxGeometry width="50" height="50" relative="1" as="geometry">
            <mxPoint x="770" y="410" as="sourcePoint" />
            <mxPoint x="830" y="358" as="targetPoint" />
          </mxGeometry>
        </mxCell>
        <mxCell id="wmQN3CBMVzomJxAV33U_-80" value="&lt;u&gt;reader_id&lt;/u&gt;" style="ellipse;whiteSpace=wrap;html=1;" vertex="1" parent="1">
          <mxGeometry x="410" y="160" width="120" height="80" as="geometry" />
        </mxCell>
        <mxCell id="wmQN3CBMVzomJxAV33U_-81" value="" style="endArrow=none;html=1;rounded=0;entryX=0.25;entryY=0;entryDx=0;entryDy=0;exitX=1;exitY=1;exitDx=0;exitDy=0;" edge="1" parent="1" source="wmQN3CBMVzomJxAV33U_-80" target="wmQN3CBMVzomJxAV33U_-69">
          <mxGeometry width="50" height="50" relative="1" as="geometry">
            <mxPoint x="440" y="300" as="sourcePoint" />
            <mxPoint x="470" y="300" as="targetPoint" />
          </mxGeometry>
        </mxCell>
        <mxCell id="wmQN3CBMVzomJxAV33U_-82" value="publisher" style="rounded=0;whiteSpace=wrap;html=1;" vertex="1" parent="1">
          <mxGeometry x="120" y="595" width="120" height="60" as="geometry" />
        </mxCell>
        <mxCell id="wmQN3CBMVzomJxAV33U_-83" value="&lt;u&gt;publisher_id&lt;/u&gt;" style="ellipse;whiteSpace=wrap;html=1;" vertex="1" parent="1">
          <mxGeometry x="36" y="680" width="120" height="80" as="geometry" />
        </mxCell>
        <mxCell id="wmQN3CBMVzomJxAV33U_-84" value="name" style="ellipse;whiteSpace=wrap;html=1;" vertex="1" parent="1">
          <mxGeometry x="170" y="720" width="120" height="70" as="geometry" />
        </mxCell>
        <mxCell id="wmQN3CBMVzomJxAV33U_-85" value="" style="endArrow=none;html=1;rounded=0;entryX=1;entryY=0;entryDx=0;entryDy=0;exitX=0.25;exitY=1;exitDx=0;exitDy=0;" edge="1" parent="1" source="wmQN3CBMVzomJxAV33U_-82" target="wmQN3CBMVzomJxAV33U_-83">
          <mxGeometry width="50" height="50" relative="1" as="geometry">
            <mxPoint x="70" y="680" as="sourcePoint" />
            <mxPoint x="120" y="630" as="targetPoint" />
            <Array as="points" />
          </mxGeometry>
        </mxCell>
        <mxCell id="wmQN3CBMVzomJxAV33U_-86" value="" style="endArrow=none;html=1;rounded=0;entryX=0.5;entryY=0;entryDx=0;entryDy=0;exitX=0.5;exitY=1;exitDx=0;exitDy=0;" edge="1" parent="1" source="wmQN3CBMVzomJxAV33U_-82" target="wmQN3CBMVzomJxAV33U_-84">
          <mxGeometry width="50" height="50" relative="1" as="geometry">
            <mxPoint x="310" y="640" as="sourcePoint" />
            <mxPoint x="280" y="600" as="targetPoint" />
          </mxGeometry>
        </mxCell>
        <mxCell id="wmQN3CBMVzomJxAV33U_-87" value="auther" style="rounded=0;whiteSpace=wrap;html=1;" vertex="1" parent="1">
          <mxGeometry x="480" y="620" width="120" height="60" as="geometry" />
        </mxCell>
        <mxCell id="wmQN3CBMVzomJxAV33U_-88" value="name" style="ellipse;whiteSpace=wrap;html=1;" vertex="1" parent="1">
          <mxGeometry x="380" y="745" width="90" height="50" as="geometry" />
        </mxCell>
        <mxCell id="wmQN3CBMVzomJxAV33U_-89" value="&lt;span style=&quot;font-size: 18px;&quot;&gt;&lt;u&gt;auther-id&lt;/u&gt;&lt;/span&gt;" style="ellipse;whiteSpace=wrap;html=1;" vertex="1" parent="1">
          <mxGeometry x="680" y="680" width="90" height="50" as="geometry" />
        </mxCell>
        <mxCell id="wmQN3CBMVzomJxAV33U_-90" value="birth-date" style="ellipse;whiteSpace=wrap;html=1;" vertex="1" parent="1">
          <mxGeometry x="610" y="740" width="86" height="60" as="geometry" />
        </mxCell>
        <mxCell id="wmQN3CBMVzomJxAV33U_-91" value="phone_number" style="ellipse;whiteSpace=wrap;html=1;" vertex="1" parent="1">
          <mxGeometry x="490" y="740" width="110" height="60" as="geometry" />
        </mxCell>
        <mxCell id="wmQN3CBMVzomJxAV33U_-92" value="" style="endArrow=none;html=1;rounded=0;exitX=1;exitY=0.25;exitDx=0;exitDy=0;" edge="1" parent="1" source="wmQN3CBMVzomJxAV33U_-87" target="wmQN3CBMVzomJxAV33U_-89">
          <mxGeometry width="50" height="50" relative="1" as="geometry">
            <mxPoint x="600" y="620" as="sourcePoint" />
            <mxPoint x="653" y="783" as="targetPoint" />
            <Array as="points" />
          </mxGeometry>
        </mxCell>
        <mxCell id="wmQN3CBMVzomJxAV33U_-93" value="" style="endArrow=none;html=1;rounded=0;exitX=1;exitY=1;exitDx=0;exitDy=0;entryX=0.5;entryY=0;entryDx=0;entryDy=0;" edge="1" parent="1" source="wmQN3CBMVzomJxAV33U_-87" target="wmQN3CBMVzomJxAV33U_-90">
          <mxGeometry width="50" height="50" relative="1" as="geometry">
            <mxPoint x="550" y="620" as="sourcePoint" />
            <mxPoint x="563" y="820" as="targetPoint" />
          </mxGeometry>
        </mxCell>
        <mxCell id="wmQN3CBMVzomJxAV33U_-94" value="" style="endArrow=none;html=1;rounded=0;entryX=1;entryY=0;entryDx=0;entryDy=0;exitX=0;exitY=1;exitDx=0;exitDy=0;" edge="1" parent="1" source="wmQN3CBMVzomJxAV33U_-87" target="wmQN3CBMVzomJxAV33U_-88">
          <mxGeometry width="50" height="50" relative="1" as="geometry">
            <mxPoint x="470" y="660" as="sourcePoint" />
            <mxPoint x="400" y="630" as="targetPoint" />
          </mxGeometry>
        </mxCell>
        <mxCell id="wmQN3CBMVzomJxAV33U_-95" value="" style="endArrow=none;html=1;rounded=0;entryX=0.591;entryY=0.025;entryDx=0;entryDy=0;exitX=0.5;exitY=1;exitDx=0;exitDy=0;entryPerimeter=0;" edge="1" parent="1" source="wmQN3CBMVzomJxAV33U_-87" target="wmQN3CBMVzomJxAV33U_-91">
          <mxGeometry width="50" height="50" relative="1" as="geometry">
            <mxPoint x="510" y="610" as="sourcePoint" />
            <mxPoint x="750" y="610" as="targetPoint" />
            <Array as="points" />
          </mxGeometry>
        </mxCell>
        <mxCell id="wmQN3CBMVzomJxAV33U_-96" value="borrow" style="rhombus;whiteSpace=wrap;html=1;" vertex="1" parent="1">
          <mxGeometry x="350" y="260" width="80" height="80" as="geometry" />
        </mxCell>
        <mxCell id="wmQN3CBMVzomJxAV33U_-97" value="" style="endArrow=none;html=1;rounded=0;entryX=0;entryY=0.5;entryDx=0;entryDy=0;exitX=1;exitY=0.5;exitDx=0;exitDy=0;" edge="1" parent="1" source="wmQN3CBMVzomJxAV33U_-60" target="wmQN3CBMVzomJxAV33U_-96">
          <mxGeometry width="50" height="50" relative="1" as="geometry">
            <mxPoint x="340" y="200" as="sourcePoint" />
            <mxPoint x="390" y="150" as="targetPoint" />
          </mxGeometry>
        </mxCell>
        <mxCell id="wmQN3CBMVzomJxAV33U_-98" value="" style="endArrow=none;html=1;rounded=0;entryX=0;entryY=0.5;entryDx=0;entryDy=0;exitX=1;exitY=0.5;exitDx=0;exitDy=0;" edge="1" parent="1" source="wmQN3CBMVzomJxAV33U_-96" target="wmQN3CBMVzomJxAV33U_-69">
          <mxGeometry width="50" height="50" relative="1" as="geometry">
            <mxPoint x="440" y="380" as="sourcePoint" />
            <mxPoint x="490" y="330" as="targetPoint" />
          </mxGeometry>
        </mxCell>
        <mxCell id="wmQN3CBMVzomJxAV33U_-99" value="n" style="text;strokeColor=none;align=center;fillColor=none;html=1;verticalAlign=middle;whiteSpace=wrap;rounded=0;" vertex="1" parent="1">
          <mxGeometry x="270" y="270" width="60" height="30" as="geometry" />
        </mxCell>
        <mxCell id="wmQN3CBMVzomJxAV33U_-100" value="m" style="text;strokeColor=none;align=center;fillColor=none;html=1;verticalAlign=middle;whiteSpace=wrap;rounded=0;" vertex="1" parent="1">
          <mxGeometry x="460" y="270" width="60" height="30" as="geometry" />
        </mxCell>
        <mxCell id="wmQN3CBMVzomJxAV33U_-101" value="starting-date" style="ellipse;whiteSpace=wrap;html=1;" vertex="1" parent="1">
          <mxGeometry x="340" y="360" width="120" height="80" as="geometry" />
        </mxCell>
        <mxCell id="wmQN3CBMVzomJxAV33U_-102" value="ending-date" style="ellipse;whiteSpace=wrap;html=1;" vertex="1" parent="1">
          <mxGeometry x="470" y="350" width="120" height="80" as="geometry" />
        </mxCell>
        <mxCell id="wmQN3CBMVzomJxAV33U_-103" value="" style="endArrow=none;html=1;rounded=0;entryX=0;entryY=1;entryDx=0;entryDy=0;exitX=0.5;exitY=0;exitDx=0;exitDy=0;" edge="1" parent="1" source="wmQN3CBMVzomJxAV33U_-101" target="wmQN3CBMVzomJxAV33U_-96">
          <mxGeometry width="50" height="50" relative="1" as="geometry">
            <mxPoint x="280" y="380" as="sourcePoint" />
            <mxPoint x="330" y="330" as="targetPoint" />
          </mxGeometry>
        </mxCell>
        <mxCell id="wmQN3CBMVzomJxAV33U_-104" value="" style="endArrow=none;html=1;rounded=0;entryX=1;entryY=1;entryDx=0;entryDy=0;exitX=0.5;exitY=0;exitDx=0;exitDy=0;" edge="1" parent="1" source="wmQN3CBMVzomJxAV33U_-102" target="wmQN3CBMVzomJxAV33U_-96">
          <mxGeometry width="50" height="50" relative="1" as="geometry">
            <mxPoint x="410" y="400" as="sourcePoint" />
            <mxPoint x="460" y="350" as="targetPoint" />
          </mxGeometry>
        </mxCell>
        <mxCell id="wmQN3CBMVzomJxAV33U_-105" value="publish" style="rhombus;whiteSpace=wrap;html=1;" vertex="1" parent="1">
          <mxGeometry x="140" y="450" width="80" height="80" as="geometry" />
        </mxCell>
        <mxCell id="wmQN3CBMVzomJxAV33U_-106" value="" style="endArrow=none;html=1;rounded=0;entryX=0.408;entryY=0.992;entryDx=0;entryDy=0;entryPerimeter=0;exitX=0.363;exitY=0.113;exitDx=0;exitDy=0;exitPerimeter=0;" edge="1" parent="1" source="wmQN3CBMVzomJxAV33U_-105" target="wmQN3CBMVzomJxAV33U_-60">
          <mxGeometry width="50" height="50" relative="1" as="geometry">
            <mxPoint x="180" y="450" as="sourcePoint" />
            <mxPoint x="230" y="370" as="targetPoint" />
          </mxGeometry>
        </mxCell>
        <mxCell id="wmQN3CBMVzomJxAV33U_-107" value="" style="endArrow=none;html=1;rounded=0;entryX=0.5;entryY=1;entryDx=0;entryDy=0;exitX=0.5;exitY=0;exitDx=0;exitDy=0;" edge="1" parent="1" source="wmQN3CBMVzomJxAV33U_-82" target="wmQN3CBMVzomJxAV33U_-105">
          <mxGeometry width="50" height="50" relative="1" as="geometry">
            <mxPoint x="180" y="600" as="sourcePoint" />
            <mxPoint x="230" y="550" as="targetPoint" />
          </mxGeometry>
        </mxCell>
        <mxCell id="wmQN3CBMVzomJxAV33U_-108" value="n" style="text;strokeColor=none;align=center;fillColor=none;html=1;verticalAlign=middle;whiteSpace=wrap;rounded=0;" vertex="1" parent="1">
          <mxGeometry x="160" y="350" width="60" height="30" as="geometry" />
        </mxCell>
        <mxCell id="wmQN3CBMVzomJxAV33U_-109" value="1" style="text;strokeColor=none;align=center;fillColor=none;html=1;verticalAlign=middle;whiteSpace=wrap;rounded=0;" vertex="1" parent="1">
          <mxGeometry x="156" y="550" width="60" height="30" as="geometry" />
        </mxCell>
        <mxCell id="wmQN3CBMVzomJxAV33U_-110" value="date-of-publishcation" style="ellipse;whiteSpace=wrap;html=1;" vertex="1" parent="1">
          <mxGeometry x="20" y="400" width="120" height="80" as="geometry" />
        </mxCell>
        <mxCell id="wmQN3CBMVzomJxAV33U_-111" value="" style="endArrow=none;html=1;rounded=0;entryX=1;entryY=1;entryDx=0;entryDy=0;exitX=0;exitY=0.5;exitDx=0;exitDy=0;" edge="1" parent="1" source="wmQN3CBMVzomJxAV33U_-105" target="wmQN3CBMVzomJxAV33U_-110">
          <mxGeometry width="50" height="50" relative="1" as="geometry">
            <mxPoint x="120" y="550" as="sourcePoint" />
            <mxPoint x="170" y="500" as="targetPoint" />
          </mxGeometry>
        </mxCell>
        <mxCell id="wmQN3CBMVzomJxAV33U_-112" value="write" style="rhombus;whiteSpace=wrap;html=1;rotation=-45;" vertex="1" parent="1">
          <mxGeometry x="344" y="500" width="80" height="80" as="geometry" />
        </mxCell>
        <mxCell id="wmQN3CBMVzomJxAV33U_-113" value="" style="endArrow=none;html=1;rounded=0;exitX=0.376;exitY=0.129;exitDx=0;exitDy=0;exitPerimeter=0;entryX=0.692;entryY=0.992;entryDx=0;entryDy=0;entryPerimeter=0;" edge="1" parent="1" source="wmQN3CBMVzomJxAV33U_-112" target="wmQN3CBMVzomJxAV33U_-60">
          <mxGeometry width="50" height="50" relative="1" as="geometry">
            <mxPoint x="350" y="500" as="sourcePoint" />
            <mxPoint x="210" y="330" as="targetPoint" />
            <Array as="points" />
          </mxGeometry>
        </mxCell>
        <mxCell id="wmQN3CBMVzomJxAV33U_-114" value="" style="endArrow=none;html=1;rounded=0;entryX=0.5;entryY=1;entryDx=0;entryDy=0;exitX=0;exitY=0;exitDx=0;exitDy=0;" edge="1" parent="1" source="wmQN3CBMVzomJxAV33U_-87" target="wmQN3CBMVzomJxAV33U_-112">
          <mxGeometry width="50" height="50" relative="1" as="geometry">
            <mxPoint x="410" y="650" as="sourcePoint" />
            <mxPoint x="460" y="600" as="targetPoint" />
          </mxGeometry>
        </mxCell>
        <mxCell id="wmQN3CBMVzomJxAV33U_-115" value="n" style="text;strokeColor=none;align=center;fillColor=none;html=1;verticalAlign=middle;whiteSpace=wrap;rounded=0;" vertex="1" parent="1">
          <mxGeometry x="220" y="340" width="60" height="30" as="geometry" />
        </mxCell>
        <mxCell id="wmQN3CBMVzomJxAV33U_-116" value="m" style="text;strokeColor=none;align=center;fillColor=none;html=1;verticalAlign=middle;whiteSpace=wrap;rounded=0;" vertex="1" parent="1">
          <mxGeometry x="450" y="570" width="60" height="30" as="geometry" />
        </mxCell>
        <mxCell id="wmQN3CBMVzomJxAV33U_-117" value="" style="endArrow=none;html=1;rounded=0;entryX=0.5;entryY=1;entryDx=0;entryDy=0;exitX=0.5;exitY=0;exitDx=0;exitDy=0;" edge="1" parent="1" source="wmQN3CBMVzomJxAV33U_-105" target="wmQN3CBMVzomJxAV33U_-60">
          <mxGeometry width="50" height="50" relative="1" as="geometry">
            <mxPoint x="170" y="430" as="sourcePoint" />
            <mxPoint x="220" y="380" as="targetPoint" />
          </mxGeometry>
        </mxCell>
        <mxCell id="wmQN3CBMVzomJxAV33U_-118" value="" style="endArrow=none;html=1;rounded=0;entryX=0.75;entryY=1;entryDx=0;entryDy=0;exitX=0.5;exitY=0;exitDx=0;exitDy=0;" edge="1" parent="1" source="wmQN3CBMVzomJxAV33U_-112" target="wmQN3CBMVzomJxAV33U_-60">
          <mxGeometry width="50" height="50" relative="1" as="geometry">
            <mxPoint x="390" y="470" as="sourcePoint" />
            <mxPoint x="440" y="420" as="targetPoint" />
          </mxGeometry>
        </mxCell>
      </root>
    </mxGraphModel>
  </diagram>
</mxfile>
